<?xml version="1.0" encoding="UTF-8" standalone="no"?>
<svg xmlns:dc="http://purl.org/dc/elements/1.1/" xmlns:cc="http://creativecommons.org/ns#" xmlns:rdf="http://www.w3.org/1999/02/22-rdf-syntax-ns#" xmlns:svg="http://www.w3.org/2000/svg" xmlns="http://www.w3.org/2000/svg" viewBox="0 0 377.94666 377.94666" height="377.94666" width="377.94666" xml:space="preserve" version="1.1">
	<metadata><rdf:RDF><cc:Work rdf:about=""><dc:format>image/svg+xml</dc:format><dc:type rdf:resource="http://purl.org/dc/dcmitype/StillImage" /></cc:Work></rdf:RDF></metadata>
	<defs>
		<clipPath id="uon-logo-clip" clipPathUnits="userSpaceOnUse"><path d="M 0,2834.64 V 0 h 2834.64 v 2834.64 z" /></clipPath>
		<style type="text/css"><![CDATA[
			#uon-logo {transform:matrix(0.13333333,0,0,-0.13333333,0,377.94667);}
			path {fill-opacity:1;fill-rule:nonzero;stroke:none;}#uon-logo-box {fill:#000;}#uon-logo-wordmark path, #uon-logo-seahorse {fill:#FFF;}
			@media (max-width:100px) {
				#uon-logo {transform:matrix(0.2,0,0,-0.2,-90,555);}
				#uon-logo-wordmark {display:none;}
			}
		]]></style>
	</defs>
	<g id="uon-logo" clip-path="url(#uon-logo-clip)">
		<path id="uon-logo-box" d="M 0,0 H 2834.64 V 2834.64 H 0 Z" />
		<g id="uon-logo-wordmark">
			<path d="m 520.316,1174.24 h 87.504 v -13.5 h -34.543 v -91.23 h -18.613 v 91.23 h -34.348 v 13.5" />
			<path d="m 711.176,1116.68 h -49.172 v -47.17 h -18.602 v 104.73 h 18.602 v -44.05 h 49.172 v 44.05 h 18.597 v -104.73 h -18.597 v 47.17" />
			<path d="m 842.145,1069.51 h -65.348 v 104.73 h 63.57 v -13.5 H 795.41 v -30.55 h 32.774 v -13.51 H 795.41 v -33.67 h 46.735 v -13.5" />
			<path d="m 1046.53,1105.13 c 0,-14.15 -8.4,-37.84 -43.19,-37.84 -27.664,0 -43.164,13.49 -43.164,37.84 v 69.11 h 18.578 v -69.11 c 0,-15.93 8.867,-24.35 25.036,-24.35 17.28,0 25.04,11.53 25.04,24.35 v 69.11 h 17.7 v -69.11" />
			<path d="m 1188.13,1174.24 v -104.73 h -16.64 l -60.01,75.49 v -75.49 h -17.7 v 104.73 h 17.02 l 60.03,-75.73 v 75.73 h 17.3" />
			<path d="m 1236.44,1069.51 h 18.5977 v 104.727 H 1236.44 Z" />
			<path d="m 1336.27,1068.61 h -9.09 l -35.66,105.63 h 18.83 l 23.47,-71.74 25.06,71.74 h 17.26 l -39.87,-105.63" />
			<path d="m 1478.18,1069.51 h -65.29 v 104.73 h 63.51 v -13.5 h -44.96 v -30.55 h 32.77 v -13.51 h -32.77 v -33.67 h 46.74 v -13.5" />
			<path d="m 1547.5,1129.28 c 14.17,0.22 22.59,7.55 22.59,16.41 0,9.29 -7.73,15.27 -22.35,15.27 h -8.19 v -31.68 z m 33,-61.78 -28.99,48.27 h -11.77 v -46.26 h -18.83 v 104.73 h 32.13 c 25.92,0 35.88,-15.5 35.88,-26.56 0,-15.28 -11.31,-24.81 -20.14,-28.35 l 32.11,-49.82 -20.39,-2.01" />
			<path d="m 1663.59,1080.78 c 9.93,0 18.11,5.78 18.11,13.73 0,8.87 -10.61,13.95 -22.56,20.4 -10.43,5.54 -27.25,14.37 -27.25,33.2 0,15.06 13.5,28.36 33.22,28.36 13.94,0 23.26,-3.32 28.99,-6.21 l -5.09,-11.96 c -5.52,2.44 -12.37,4.65 -23.68,4.65 -10.43,0 -16.41,-6.64 -16.41,-12.4 0,-9.07 10.45,-14.85 21.73,-21.05 9.74,-5.3 29.44,-13.49 29.44,-32.54 0,-20.6 -23.92,-29.67 -36.5,-29.67 -17.77,0 -28.38,5.97 -34.36,8.84 l 5.75,12.21 c 4.87,-2.24 14.83,-7.56 28.61,-7.56" />
			<path d="m 1741.69,1069.51 h 18.6289 v 104.727 H 1741.69 Z" />
			<path d="m 1795.88,1174.24 h 87.51 v -13.5 h -34.55 v -91.23 h -18.61 v 91.23 h -34.35 v 13.5" />
			<path d="m 2000.14,1174.24 -34.99,-54.04 v -50.69 h -18.61 v 50.69 l -35.88,54.04 h 19.73 l 26.56,-41.18 25.05,41.18 h 18.14" />
			<path d="m 2120.83,1121.97 c 0,-24.79 13.97,-41.19 34.77,-41.19 20.82,0 34.55,16.4 34.55,41.19 0,24.57 -13.73,40.98 -34.55,40.98 -20.8,0 -34.77,-16.41 -34.77,-40.98 z m 89.71,0 c 0,-33.87 -24.8,-54.68 -54.94,-54.68 -31.44,0 -55.15,20.57 -55.15,54.68 0,31.66 23.27,54.5 55.15,54.5 33.67,0 54.94,-21.94 54.94,-54.5" />
			<path d="m 2248.76,1069.51 v 104.73 h 60.02 v -13.5 h -41.4 v -30.55 h 29.22 v -13.51 h -29.22 v -47.17 h -18.62" />
			<path d="M 722.184,973.691 V 756.031 H 687.652 L 562.906,912.949 V 756.031 h -36.785 v 217.66 h 35.418 L 686.27,816.309 v 157.382 h 35.914" />
			<path d="M 908.734,756.031 H 772.969 v 217.66 h 132.082 v -28.082 h -93.434 v -63.5 h 68.125 v -28.07 h -68.125 v -69.937 h 97.117 v -28.071" />
			<path d="m 1024.28,754.18 h -19.8 l -74.089,219.511 h 40.031 l 50.168,-153.23 32.21,90.187 -20.71,63.043 h 39.58 l 48.31,-149.113 52.02,149.113 h 35.88 L 1125.49,754.18 h -19.76 l -38.2,114.121 -43.25,-114.121" />
			<path d="m 1411.21,770.27 c -15.17,-9.622 -35.89,-18.84 -79.16,-18.84 -76.4,0 -116.86,57.5 -116.86,113.679 0,56.129 40.46,113.2 116.86,113.2 42.82,0 65.34,-12.879 74.54,-17.039 l -11.94,-26.231 c -7.36,3.231 -26.7,14.742 -61.22,14.742 -47.38,0 -75.92,-35.441 -75.92,-84.672 0,-49.718 29.91,-85.148 79.6,-85.148 34.52,0 52.03,9.668 62.15,14.258 l 11.95,-23.949" />
			<path d="m 1524.17,903.289 -27.13,-64.891 h 52.45 z m -61.2,-147.258 h -37.74 l 96.21,218.598 h 14.71 l 85.59,-218.598 h -40.94 l -20.71,54.289 h -74.57 l -22.55,-54.289" />
			<path d="m 1715.64,779.488 c 20.7,0 37.73,11.973 37.73,28.543 0,18.41 -22.09,28.981 -46.93,42.321 -21.64,11.507 -56.62,29.91 -56.62,69.046 0,31.282 28.07,58.911 69.04,58.911 29.01,0 48.3,-6.899 60.3,-12.879 l -10.59,-24.86 c -11.52,5.039 -25.77,9.649 -49.24,9.649 -21.64,0 -34.08,-13.789 -34.08,-25.77 0,-18.879 21.66,-30.84 45.13,-43.719 20.24,-11.05 61.2,-28.07 61.2,-67.64 0,-42.82 -49.73,-61.66 -75.94,-61.66 -36.84,0 -58.91,12.422 -71.35,18.398 l 11.99,25.301 c 10.1,-4.578 30.84,-15.641 59.36,-15.641" />
			<path d="m 1810.64,973.691 h 181.75 v -28.082 h -71.77 V 756.031 h -38.65 v 189.578 h -71.33 v 28.082" />
			<path d="m 2063.59,784.102 h 83.31 v -28.071 h -121.95 v 217.66 h 38.64 V 784.102" />
			<path d="m 2312.5,756.031 h -135.79 v 217.66 h 132.07 v -28.082 h -93.39 v -63.5 h 68.1 v -28.07 h -68.1 v -69.937 h 97.11 v -28.071" />
			<path d="M 993.312,626.328 980.219,595.09 h 25.271 z m -29.46,-70.879 h -18.164 l 46.277,105.223 h 7.094 l 41.211,-105.223 h -19.72 l -9.98,26.121 h -35.882 l -10.836,-26.121" />
			<path d="m 1159.46,591.109 c 0,-14.179 -8.39,-37.89 -43.18,-37.89 -27.7,0 -43.21,13.543 -43.21,37.89 v 69.11 h 18.63 v -69.11 c 0,-15.929 8.85,-24.347 25.02,-24.347 17.28,0 25.04,11.5 25.04,24.347 v 69.11 h 17.7 v -69.11" />
			<path d="m 1233.06,566.762 c 9.96,0 18.18,5.758 18.18,13.707 0,8.871 -10.64,13.961 -22.59,20.39 -10.43,5.539 -27.26,14.411 -27.26,33.219 0,15.082 13.51,28.352 33.22,28.352 13.96,0 23.27,-3.321 29.01,-6.2 l -5.09,-11.949 c -5.53,2.418 -12.41,4.649 -23.71,4.649 -10.41,0 -16.36,-6.641 -16.36,-12.418 0,-9.082 10.38,-14.832 21.68,-21.024 9.76,-5.308 29.45,-13.539 29.45,-32.578 0,-20.582 -23.9,-29.691 -36.53,-29.691 -17.72,0 -28.36,5.98 -34.35,8.883 l 5.78,12.179 c 4.89,-2.211 14.85,-7.519 28.57,-7.519" />
			<path d="m 1297.8,660.219 h 87.47 v -13.52 h -34.54 v -91.25 h -18.61 v 91.25 h -34.32 v 13.52" />
			<path d="m 1447.42,615.27 c 14.19,0.218 22.61,7.5 22.61,16.371 0,9.32 -7.76,15.289 -22.36,15.289 h -8.21 v -31.66 z m 33.02,-61.821 -29.01,48.301 h -11.75 v -46.301 h -18.84 v 104.77 h 32.14 c 25.9,0 35.85,-15.508 35.85,-26.59 0,-15.27 -11.3,-24.801 -20.12,-28.34 l 32.1,-49.84 -20.37,-2" />
			<path d="m 1571.45,626.328 -13.08,-31.238 h 25.26 z m -29.46,-70.879 h -18.16 l 46.28,105.223 h 7.07 l 41.21,-105.223 h -19.7 l -9.98,26.121 h -35.86 l -10.86,-26.121" />
			<path d="m 1671.54,568.969 h 40.08 v -13.52 h -58.71 v 104.77 h 18.63 v -91.25" />
			<path d="m 1745.85,555.449 h 18.5977 v 104.77 H 1745.85 Z" />
			<path d="m 1845.95,626.328 -13.06,-31.238 h 25.27 z m -29.45,-70.879 h -18.17 l 46.29,105.223 h 7.09 l 41.22,-105.223 h -19.73 l -9.96,26.121 h -35.88 l -10.86,-26.121" />
		</g>
		<path id="uon-logo-seahorse" d="m 1347.5,2260.31 c 0.21,0 0.4,-0.17 0.4,-0.4 0,-0.21 -0.19,-0.32 -0.39,-0.4 -137.77,-48.17 -181.53,-215.9 -181.53,-215.9 -0.04,-0.23 0.04,-0.49 0.25,-0.63 0.28,-0.2 0.64,-0.12 0.86,0.15 249.38,326.6 481.66,220.93 481.66,220.93 0.42,-0.11 0.66,-0.51 0.54,-0.94 -0.08,-0.37 -0.39,-0.62 -0.75,-0.59 -4.44,0.42 -73.12,5.93 -96.04,-57.47 l 346.22,-386.55 c 0,-11.26 -4.33,-21.24 -11.28,-30.01 -3.59,5.26 -18.46,12.23 -28.34,15.4 -13.56,4.38 -26.15,6.55 -26.15,16.64 0,7.32 6.4,9.29 9.74,9.29 2.97,0 4.63,-1.39 4.63,-1.39 0.06,-0.07 0.16,-0.09 0.21,-0.03 0.08,0.07 0.1,0.15 0.06,0.21 0,0 -2.34,5.15 -9.25,5.25 -6.72,0.17 -17.43,-4.64 -18.07,-17.38 -0.47,-10.53 4.52,-16.23 12.17,-21.54 7.56,-5.23 22.39,-11.91 22.39,-22.95 0,-10.99 -8.44,-13.63 -10.32,-14.51 -3.68,-1.78 -35.04,-15.92 -65.75,-21.66 -1.54,5.35 -1.63,23.23 -33.18,54.79 -61.03,61.03 -278.82,9.97 -278.82,160.13 0,69.28 65.79,96.91 103.45,94.85 31.91,-1.76 45.35,-11.56 47.73,-13.1 0.19,-0.13 0.45,-0.12 0.66,0.03 0.33,0.2 0.44,0.61 0.23,0.93 0,0 -23.9,52.59 -91.82,52.59 -75.16,0 -180.72,-55 -180.72,-175.04 0,-249.17 349.11,-233.52 349.11,-444.11 0,-82.16 -48.26,-124.14 -109.01,-145.73 0,0 29.05,20.55 29.05,59.67 0,178.16 -412.69,139.86 -412.69,335.53 0,76.18 64.98,103.75 81.64,103.75 0.38,0 0.69,0.32 0.69,0.69 0,0.24 -0.14,0.47 -0.33,0.58 -2.03,1.23 -12.57,6.77 -32.35,6.77 -51.67,0 -150.18,-46.54 -150.18,-164.96 0,-141.05 183.47,-229.75 183.47,-297.87 0,-29.66 -18.62,-49.74 -18.62,-49.74 -150.74,48.07 -343.363,199.25 -343.363,468.77 0,325.99 304.413,475.95 423.793,475.95" />
	</g>
</svg>